{"title":"Trouble with the Curve 2012 BRrip Xvid-aTLas","uid":7910201,"size":727463104,"categoryP":"video","categoryS":"movies","magnet":"?xt=urn:btih:e0d3a85989d69fcf6052fad027bb78441068dcd9&amp;dn=Trouble+with+the+Curve+2012+BRrip+Xvid-aTLas&amp;tr=udp%3A%2F%2Ftracker.openbittorrent.com%3A80&amp;tr=udp%3A%2F%2Fopen.demonii.com%3A1337&amp;tr=udp%3A%2F%2Ftracker.coppersurfer.tk%3A6969&amp;tr=udp%3A%2F%2Fexodus.desync.com%3A6969","seeders":1,"leechers":0,"uploader":"Mediamonster","files":-1,"time":1355193578,"description":"Trouble with the Curve 2012 BRrip Xvid-aTLas\n &lt;a href=&quot;\nhttp://www.imdb.com/title/tt2083383/&quot; rel=&quot;nofollow&quot; target=&quot;_NEW&quot;&gt;\nhttp://www.imdb.com/title/tt2083383/&lt;/a&gt;\n\nPlot:\nAn ailing baseball scout in his twilight years takes his daughter along for one last recruiting trip. \n\nDetails:\nFormat                                   : AVI\nFormat/Info                              : Audio Video Interleave\nFormat profile                           : OpenDML\nFormat settings                          : rec\nFile size                                : 691 MiB\nDuration                                 : 1h 51mn\nOverall bit rate                         : 869 Kbps\nWriting application                      : AVI-Mux GUI 1.17.8.3, Feb 16 201019:42:50\n\nVideo\nID                                       : 0\nFormat                                   : MPEG-4 Visual\nFormat profile                           : Advanced Simple@L5\nFormat settings, BVOP                    : 2\nFormat settings, QPel                    : No\nFormat settings, GMC                     : No warppoints\nFormat settings, Matrix                  : Default (H.263)\nCodec ID                                 : XVID\nCodec ID/Hint                            : XviD\nDuration                                 : 1h 51mn\nBit rate                                 : 738 Kbps\nWidth                                    : 720 pixels\nHeight                                   : 304 pixels\nDisplay aspect ratio                     : 2.35:1\nFrame rate                               : 23.976 fps\nColor space                              : YUV\nChroma subsampling                       : 4:2:0\nBit depth                                : 8 bits\nScan type                                : Progressive\nCompression mode                         : Lossy\nBits/(Pixel*Frame)                       : 0.141\nStream size                              : 587 MiB (85%)\nWriting library                          : XviD 1.2.1 (UTC 2008-12-04)\n\nAudio\nID                                       : 1\nFormat                                   : MPEG Audio\nFormat version                           : Version 1\nFormat profile                           : Layer 3\nMode                                     : Joint stereo\nMode extension                           : MS Stereo\nCodec ID                                 : 55\nCodec ID/Hint                            : MP3\nDuration                                 : 1h 51mn\nBit rate mode                            : Constant\nBit rate                                 : 128 Kbps\nChannel(s)                               : 2 channels\nSampling rate                            : 48.0 KHz\nCompression mode                         : Lossy\nStream size                              : 102 MiB (15%)\nAlignment                                : Aligned on interleaves\nInterleave, duration                     : 837 ms (20.07 video frames)\nInterleave, preload duration             : 216 ms\nTitle                                    : trouble.with.the.curve.2012.1080p.bluray.x264-sparks - [2] English\nWriting library                          : LAME3.99r\nEncoding settings                        : -m j -V 4 -q 2 -lowpass 17 -b 128","torrent":{"xt":"urn:btih:e0d3a85989d69fcf6052fad027bb78441068dcd9","amp;dn":"Trouble+with+the+Curve+2012+BRrip+Xvid-aTLas","amp;tr":["udp%3A%2F%2Ftracker.openbittorrent.com%3A80","udp%3A%2F%2Fopen.demonii.com%3A1337","udp%3A%2F%2Ftracker.coppersurfer.tk%3A6969","udp%3A%2F%2Fexodus.desync.com%3A6969"],"infoHash":"e0d3a85989d69fcf6052fad027bb78441068dcd9","infoHashBuffer":{"type":"Buffer","data":[224,211,168,89,137,214,159,207,96,82,250,208,39,187,120,68,16,104,220,217]},"announce":[],"urlList":[]}}